<?xml version="1.0" encoding="utf-8"?>
<!-- Generator: Adobe Illustrator 24.1.2, SVG Export Plug-In . SVG Version: 6.00 Build 0)  -->
<svg version="1.1" id="Layer_1" xmlns="http://www.w3.org/2000/svg" xmlns:xlink="http://www.w3.org/1999/xlink" x="0px" y="0px"
	 viewBox="0 0 800 800" style="enable-background:new 0 0 800 800;" xml:space="preserve">
<style type="text/css">
	.st0{fill:#F4F4F4;}
</style>
<g id="Layer_3">
	<path class="st0" d="M160,145.3c-0.9,1.1-1.3,1.5-1.9,2.2s-1.1,1.2-1.6,1.9l-1.5,1.9c-0.5,0.6-0.9,1.3-1.4,2l-0.7,1l-0.6,1
		c-0.4,0.7-0.9,1.4-1.3,2.1c-0.8,1.4-1.6,2.9-2.4,4.3s-1.4,3-2.1,4.5s-1.3,3.1-1.8,4.6c-0.3,0.8-0.6,1.6-0.8,2.4l-0.7,2.4
		c-0.2,0.8-0.4,1.6-0.6,2.4l-0.3,1.2l-0.2,1.2c-0.7,3.3-1.1,6.6-1.3,10l-0.1,2.5v3.9l0.1,1.9l0.1,3.7c0.4,9.9,0.8,19.7,1.1,29.6
		c0.7,19.7,1.2,39.4,1.7,59.2l1.5,59.2c1,39.4,2.7,78.8,5.2,118.1c1.3,19.6,2.7,39.3,4.4,58.9c0.8,9.8,1.6,19.6,2.5,29.4
		c0.8,9.8,1.7,19.6,2.7,29.4l1.4,14.7c0.5,5.2,0.9,9,1.7,13.2c1.7,8.3,4.5,16.2,8.4,23.7c2,3.7,4.2,7.3,6.7,10.6l0.9,1.3l1,1.2
		c0.7,0.8,1.3,1.6,2,2.4c1.4,1.6,2.8,3.2,4.3,4.6s3,2.9,4.5,4.3c0.8,0.7,1.6,1.3,2.4,2l1.2,1c0.5,0.4,1,0.8,1.4,1.1
		c3.3,2.6,6.8,4.9,10.4,6.9c3.6,2,7.3,3.8,11.2,5.3c7.7,2.9,15.8,4.8,24,5.5c4.1,0.3,8.2,0.4,12.2,0.1c8.1-0.5,16.1-2.1,23.7-4.9
		c7.6-2.7,14.7-6.5,21.1-11.2l46.9-35.2l47.4-35.3l47.3-35.3l47.2-35.5l94.1-71.4l47.1-35.7c1.1-0.8,1.6-1.3,2.3-1.9l2-1.7
		c0.7-0.5,1.3-1.1,1.9-1.8l1.8-1.8c0.6-0.6,1.2-1.2,1.8-1.8l1.7-1.9l0.4-0.5l0.4-0.5l0.8-1l1.4-2c4-5.3,7.2-11.1,9.5-17.3
		c4.6-12.4,5.6-25.9,3-38.9c-1.3-6.4-3.5-12.6-6.4-18.4c-2.9-5.7-6.6-10.9-11-15.5c-4.4-4.6-9.4-8.5-14.9-11.7l-2.1-1.2l-1-0.6
		l-1.1-0.5l-2.2-1l-1.1-0.5l-1.7-0.8l-13.5-6l-54-23.9l-53.9-24l-53.9-24.2c-35.9-16.1-71.7-32.5-107.5-49
		c-17.8-8.3-35.6-16.6-53.5-25L251,133.9l-6.7-3.2l-3.3-1.6l-2.3-1.1c-2.9-1.3-5.8-2.4-8.9-3.2c-6.1-1.7-12.3-2.6-18.7-2.6
		c-6.4,0-12.7,0.9-18.9,2.7c-6.2,1.8-12.1,4.4-17.5,7.9C169.3,136.2,164.3,140.4,160,145.3z M105.7,100.4
		c34.2-42.6,90.1-61.4,143.1-48.1c6.5,1.6,12.9,3.7,19.1,6.3l4.5,1.9l3.4,1.5l6.8,3l27,11.9c18,8,36,16,53.9,24.1
		c35.9,16.2,71.7,32.5,107.4,49.1l53.6,24.9l53.5,25l53.4,25.1l13.4,6.3l1.7,0.8l2.2,1.1l4.4,2.2l2.2,1.1l2.1,1.3l4.3,2.6
		c11.4,7.1,21.6,15.7,30.5,25.7c8.8,10,16.2,21.2,21.8,33.3c5.5,12,9.4,24.6,11.4,37.7c4,26.1,0.5,52.7-10.2,76.9
		c-5.3,12-12.3,23.2-20.8,33.1l-3.3,3.6c-1.1,1.2-2.2,2.4-3.3,3.5l-3.5,3.3c-1.2,1.1-2.3,2.3-3.6,3.3l-3.7,3.1c-1.2,1-2.5,2.1-3.8,3
		l-3.9,2.8c-1.3,0.9-2.7,2-3.6,2.5l-49.3,32.5l-98.7,65l-49.2,32.7l-49.1,32.9l-49,32.9l-24.6,16.4l-12.3,8.2l-6.1,4.1
		c-2.1,1.4-3.9,2.6-6.6,4.3c-4.9,3.1-10.1,5.9-15.4,8.4c-5.3,2.4-10.8,4.4-16.4,6c-11.2,3.2-22.7,4.9-34.3,4.8
		c-5.8,0-11.5-0.4-17.2-1.2c-11.4-1.7-22.5-4.9-32.9-9.6c-5.2-2.4-10.2-5.1-15.1-8.1c-4.8-3-9.4-6.4-13.7-10.1
		c-0.6-0.5-1-0.9-1.5-1.3l-1.6-1.4c-1.1-1-2.1-1.9-3.1-2.9c-2-2-4.1-4-5.9-6.1s-3.7-4.3-5.5-6.5c-0.9-1.1-1.7-2.3-2.6-3.4l-1.3-1.7
		l-1.2-1.8c-3.2-4.7-6.1-9.5-8.6-14.6c-2.5-5-4.7-10.3-6.5-15.6l-1.3-4c-0.4-1.3-0.7-2.7-1.1-4.1l-0.5-2l-0.4-2.1
		c-0.3-1.4-0.6-2.8-0.9-4.1c-1-5.5-1.6-11.5-2-16l-1.4-14.8c-0.9-9.8-1.9-19.6-2.9-29.4s-2-19.6-3-29.4c-2.1-19.6-4.3-39.1-6.7-58.7
		c-4.9-39.1-10.6-78.1-16.9-117l-9.6-58.4c-3.2-19.5-6.4-38.9-9.4-58.4c-1.5-9.7-3-19.5-4.4-29.2l-0.6-3.6l-0.3-1.9l-0.3-2.4
		c-0.2-1.6-0.4-3.2-0.5-4.8l-0.3-4.8c-0.3-6.5-0.1-13,0.6-19.4c0.7-6.5,1.8-12.9,3.4-19.2c0.7-3.2,1.8-6.3,2.7-9.4
		c1.1-3.1,2.2-6.2,3.5-9.2s2.7-6,4.1-8.9c0.7-1.5,1.5-2.9,2.3-4.3l1.2-2.2l1.3-2.1c0.9-1.4,1.7-2.8,2.6-4.2l2.8-4.1
		c0.9-1.4,1.9-2.7,2.9-4S105.1,101.2,105.7,100.4L105.7,100.4z"/>
	<path class="st0" d="M267,356.5l-13.8,114.7c-1.7,13.5-14,23.1-27.6,21.4c-11.2-1.4-20-10.2-21.4-21.4l-13.8-114.7
		c-2.5-21.1,12.5-40.4,33.7-42.9c21.1-2.5,40.4,12.5,42.9,33.7C267.3,350.3,267.3,353.4,267,356.5z"/>
	<path class="st0" d="M305.3,488L319,263.4c0.9-13.5,12.7-23.7,26.2-22.8c12.2,0.9,21.9,10.6,22.8,22.8L381.9,488
		c1.3,21.2-14.8,39.4-35.9,40.7c-21.2,1.3-39.4-14.8-40.7-35.9l0,0C305.2,491.1,305.2,489.6,305.3,488z"/>
	<path class="st0" d="M501.7,319.4c1.4,3.2,2.7,6.6,3.7,10c1,3.3,1.9,6.7,2.6,10c1.4,6.6,2.5,13.3,3.1,20c1.2,13.3,1.2,26.7,0,40.1
		c-1.1,13.5-3.5,26.9-6.9,40.1c-1.8,6.8-4,13.5-6.5,20c-1.3,3.3-2.7,6.7-4.3,10c-1.6,3.4-3.4,6.8-5.4,10c-8.5,13.5-26.4,17.6-40,9.1
		c-3.7-2.3-6.7-5.4-9.1-9.1c-2-3.2-3.8-6.6-5.4-10c-1.6-3.3-3-6.7-4.3-10c-2.5-6.5-4.7-13.2-6.5-20c-3.5-13.1-5.8-26.5-6.9-40.1
		c-1.2-13.3-1.2-26.7,0-40.1c0.6-6.7,1.7-13.4,3.1-20c0.7-3.3,1.6-6.7,2.6-10c1-3.4,2.2-6.8,3.7-10c9.7-21.2,34.7-30.5,55.8-20.8
		C490,302.8,497.4,310.2,501.7,319.4L501.7,319.4z"/>
</g>
</svg>
